<svg width="164" height="164" viewBox="0 0 164 164" fill="none" xmlns="http://www.w3.org/2000/svg">
<path d="M81.6817 114.229L39.1317 156.779C34.8013 160.934 29.0151 163.226 23.0143 163.165C17.0134 163.103 11.2756 160.692 7.03147 156.449C2.78733 152.207 0.374803 146.47 0.311284 140.469C0.247765 134.468 2.53831 128.681 6.69169 124.349L49.2417 81.7994L51.5 79.5C49.2017 83.8346 46.8359 91.8314 47.5639 96.6833C48.2919 101.535 50.5569 106.026 54.0261 109.495C57.4954 112.964 61.9858 115.229 66.8377 115.957C71.6896 116.685 80.1654 113.798 84.5 111.5L81.6817 114.229Z" fill="url(#paint0_radial_102_43)"/>
<path d="M53.9817 21.6294C57.6258 25.2716 60.5165 29.5961 62.4888 34.3558C64.4611 39.1155 65.4762 44.2172 65.4762 49.3694C65.4762 54.5216 64.4611 59.6233 62.4888 64.383C60.5165 69.1427 57.6258 73.4672 53.9817 77.1094L49.2817 81.7594H49.2117L6.69168 39.2494C4.52141 37.0671 2.8112 34.4714 1.66237 31.6161C0.513546 28.7608 -0.0505334 25.704 0.00355188 22.6268C0.0576372 19.5495 0.728787 16.5144 1.97724 13.7012C3.2257 10.8881 5.02606 8.35408 7.27168 6.2494C16.3817 -2.2506 30.7517 -1.5706 39.5617 7.2494L53.9817 21.6294Z" fill="url(#paint1_radial_102_43)"/>
<path d="M156.662 156.779C152.359 161.075 146.527 163.488 140.447 163.488C134.366 163.488 128.535 161.075 124.232 156.779L81.6817 114.229L86.3617 109.539C93.7222 102.181 103.704 98.0472 114.112 98.0472C124.52 98.0472 134.501 102.181 141.862 109.539L156.662 124.339C160.963 128.641 163.38 134.476 163.38 140.559C163.38 146.643 160.963 152.477 156.662 156.779Z" fill="url(#paint2_radial_102_43)"/>
<path d="M158.139 14.7111L148.056 4.62771C141.885 -1.54257 131.881 -1.54257 125.711 4.62771L115.628 14.7111C109.457 20.8813 109.457 30.8853 115.628 37.0556L125.711 47.139C131.881 53.3093 141.885 53.3093 148.056 47.139L158.139 37.0556C164.309 30.8853 164.309 20.8813 158.139 14.7111Z" fill="url(#paint3_radial_102_43)"/>
<path fill-rule="evenodd" clip-rule="evenodd" d="M39.5617 7.2494C30.7517 -1.5706 16.3817 -2.2506 7.27168 6.2494C5.02606 8.35408 3.2257 10.8881 1.97724 13.7012C0.728787 16.5144 0.0576372 19.5495 0.00355188 22.6268C-0.0505334 25.704 0.513546 28.7608 1.66237 31.6161C2.8112 34.4714 4.52141 37.0671 6.69168 39.2494L49.2117 81.7594H49.2817L49.2417 81.7994L6.69169 124.349C2.53831 128.681 0.247765 134.468 0.311284 140.469C0.374803 146.47 2.78733 152.207 7.03147 156.449C11.2756 160.692 17.0134 163.103 23.0143 163.165C29.0151 163.226 34.8013 160.934 39.1317 156.779L81.6817 114.229L124.232 156.779C128.535 161.075 134.366 163.488 140.447 163.488C146.527 163.488 152.359 161.075 156.662 156.779C160.963 152.477 163.38 146.643 163.38 140.559C163.38 134.476 160.963 128.641 156.662 124.339L141.862 109.539C134.501 102.181 124.52 98.0472 114.112 98.0472C103.704 98.0472 93.7222 102.181 86.3617 109.539L84.3011 111.604C83.54 112 82.6616 112.41 81.7045 112.815C81.6905 112.821 81.6764 112.827 81.6624 112.833C77.1016 114.757 70.7759 116.548 66.8377 115.957C61.9858 115.229 57.4954 112.964 54.0261 109.495C50.5569 106.026 48.2919 101.535 47.5639 96.6833C46.9693 92.72 48.4389 86.6582 50.2499 82.2082C50.2518 82.2035 50.2537 82.1988 50.2556 82.1941C50.6371 81.2578 51.0336 80.3932 51.4291 79.6348L53.9817 77.1094C57.6258 73.4672 60.5165 69.1427 62.4888 64.383C64.4611 59.6233 65.4762 54.5216 65.4762 49.3694C65.4762 44.2172 64.4611 39.1155 62.4888 34.3558C60.5165 29.5961 57.6258 25.2716 53.9817 21.6294L39.5617 7.2494ZM53.2748 22.3367L38.8542 7.9561C30.4011 -0.506608 16.646 -1.12863 7.95474 6.97976C5.80712 8.99279 4.0853 11.4163 2.89127 14.1069C1.6971 16.7977 1.05513 19.7009 1.0034 22.6443C0.951664 25.5878 1.49122 28.5117 2.5901 31.2429C3.68874 33.9734 5.32414 36.4558 7.39943 38.5429C7.39987 38.5434 7.4003 38.5438 7.40074 38.5442L49.2402 80.3738L50.7866 78.7993L50.824 78.8267L53.2748 76.4021C53.2754 76.4015 53.276 76.4008 53.2766 76.4002C56.8269 72.8513 59.6433 68.6377 61.565 64.0002C63.487 59.3618 64.4762 54.3902 64.4762 49.3694C64.4762 44.3486 63.487 39.377 61.565 34.7386C59.643 30.1002 56.8259 25.886 53.2748 22.3367ZM48.5417 83.9136L7.40632 125.049C3.43854 129.191 1.25051 134.722 1.31123 140.458C1.37198 146.197 3.67934 151.684 7.73847 155.742C11.7976 159.8 17.2853 162.106 23.0245 162.165C28.7605 162.224 34.2912 160.034 38.4321 156.065C38.4345 156.062 38.437 156.06 38.4394 156.058L79.891 114.606C78.684 115.05 77.413 115.467 76.1334 115.826C72.8349 116.753 69.3332 117.343 66.6893 116.946C61.6259 116.186 56.9395 113.823 53.319 110.202C49.6985 106.582 47.3347 101.895 46.575 96.8317C46.1819 94.2116 46.628 90.8477 47.427 87.6549C47.7456 86.382 48.1252 85.117 48.5417 83.9136ZM124.938 156.072L83.1073 114.241ZM83.1073 114.241L85.1957 112.218L85.1558 112.164L87.0687 110.247C87.069 110.246 87.0693 110.246 87.0696 110.246C94.2424 103.075 103.969 99.0472 114.112 99.0472C124.254 99.0472 133.982 103.076 141.155 110.246C141.155 110.246 141.155 110.246 141.155 110.246L155.955 125.046C160.068 129.161 162.38 134.741 162.38 140.559C162.38 146.377 160.069 151.957 155.955 156.072C151.84 160.18 146.262 162.488 140.447 162.488C134.632 162.488 129.054 160.18 124.938 156.072M157.432 15.4182L147.349 5.33482C141.569 -0.444939 132.198 -0.444941 126.418 5.33482L116.335 15.4182C110.555 21.1979 110.555 30.5688 116.335 36.3485L126.418 46.4319C132.198 52.2116 141.569 52.2116 147.349 46.4319L157.432 36.3485C163.212 30.5688 163.212 21.1979 157.432 15.4182ZM148.056 4.62771L158.139 14.7111C164.309 20.8813 164.309 30.8853 158.139 37.0556L148.056 47.139C141.885 53.3093 131.881 53.3093 125.711 47.139L115.628 37.0556C109.457 30.8853 109.457 20.8813 115.628 14.7111L125.711 4.62771C131.881 -1.54257 141.885 -1.54257 148.056 4.62771Z" fill="white"/>
<defs>
<radialGradient id="paint0_radial_102_43" cx="0" cy="0" r="1" gradientUnits="userSpaceOnUse" gradientTransform="translate(152.5 10.5) rotate(135) scale(205.768 186.795)">
<stop stop-color="#C11066"/>
<stop offset="1" stop-color="#260346"/>
</radialGradient>
<radialGradient id="paint1_radial_102_43" cx="0" cy="0" r="1" gradientUnits="userSpaceOnUse" gradientTransform="translate(152.5 10.5) rotate(135) scale(205.768 186.795)">
<stop stop-color="#C11066"/>
<stop offset="1" stop-color="#260346"/>
</radialGradient>
<radialGradient id="paint2_radial_102_43" cx="0" cy="0" r="1" gradientUnits="userSpaceOnUse" gradientTransform="translate(152.5 10.5) rotate(135) scale(205.768 186.795)">
<stop stop-color="#C11066"/>
<stop offset="1" stop-color="#260346"/>
</radialGradient>
<radialGradient id="paint3_radial_102_43" cx="0" cy="0" r="1" gradientUnits="userSpaceOnUse" gradientTransform="translate(152.5 10.5) rotate(135) scale(205.768 186.795)">
<stop stop-color="#C11066"/>
<stop offset="1" stop-color="#260346"/>
</radialGradient>
</defs>
</svg>
